<svg width="16" height="64" viewBox="0 0 16 64" fill="none" xmlns="http://www.w3.org/2000/svg">
<rect y="8" width="4" height="4" fill="#6153CC"/>
<rect x="8" y="8" width="4" height="4" fill="#6153CC"/>
<rect x="4" width="4" height="4" fill="#6153CC"/>
<rect x="12" y="16" width="4" height="4" fill="#6153CC"/>
<rect x="8" y="20" width="4" height="4" fill="#6153CC"/>
<rect x="4" y="24" width="4" height="4" fill="#6153CC"/>
<rect x="12" y="24" width="4" height="4" fill="#6153CC"/>
<rect x="8" y="28" width="4" height="4" fill="#6153CC"/>
<rect x="4" y="36" width="4" height="4" fill="#6153CC"/>
<rect y="44" width="4" height="4" fill="#6153CC"/>
<rect x="12" y="36" width="4" height="4" fill="#6153CC"/>
<rect x="12" y="36" width="4" height="4" fill="#6153CC"/>
<rect x="8" y="44" width="4" height="4" fill="#6153CC"/>
<rect y="28" width="4" height="4" fill="#6153CC"/>
<rect y="32" width="16" height="4" fill="#6153CC"/>
<rect y="40" width="16" height="4" fill="#6153CC"/>
<rect y="48" width="16" height="16" fill="#6153CC"/>
<rect x="4" y="16" width="4" height="4" fill="#6153CC"/>
<rect y="20" width="4" height="4" fill="#6153CC"/>
</svg>
