<svg width="52" height="48" viewBox="0 0 52 48" fill="none" xmlns="http://www.w3.org/2000/svg">
<rect x="4" y="4" width="44" height="40" fill="white"/>
<rect y="8" width="52" height="32" fill="white"/>
<rect x="8" width="36" height="48" fill="white"/>
<rect x="6" y="6" width="40" height="36" fill="#6153CC" fill-opacity="0.6"/>
<rect x="14" y="13" width="24" height="4" fill="#020122"/>
<rect x="14" y="22" width="24" height="4" fill="#020122"/>
<rect x="14" y="31" width="24" height="4" fill="#020122"/>
<rect x="10" y="42" width="32" height="4" fill="#020122"/>
<rect x="10" y="2" width="32" height="4" fill="#020122"/>
<rect x="50" y="10" width="28" height="4" transform="rotate(90 50 10)" fill="#020122"/>
<rect x="6" y="10" width="28" height="4" transform="rotate(90 6 10)" fill="#020122"/>
<rect x="10" y="6" width="4" height="4" transform="rotate(90 10 6)" fill="#020122"/>
<rect x="46" y="6" width="4" height="4" transform="rotate(90 46 6)" fill="#020122"/>
<rect x="46" y="38" width="4" height="4" transform="rotate(90 46 38)" fill="#020122"/>
<rect x="10" y="38" width="4" height="4" transform="rotate(90 10 38)" fill="#020122"/>
</svg>
