<svg width="32" height="32" viewBox="0 0 32 32" fill="none" xmlns="http://www.w3.org/2000/svg">
<rect width="8" height="8" fill="white"/>
<rect x="18" y="18" width="8" height="8" fill="white"/>
<rect x="18" y="6" width="8" height="8" fill="white"/>
<rect x="18" y="6" width="8" height="8" fill="white"/>
<rect y="24" width="8" height="8" fill="white"/>
<rect x="20" y="4" width="8" height="8" fill="white"/>
<rect x="20" y="4" width="8" height="8" fill="white"/>
<rect x="2" y="22" width="8" height="8" fill="white"/>
<rect x="22" y="2" width="8" height="8" fill="white"/>
<rect x="4" y="20" width="8" height="8" fill="white"/>
<rect x="24" width="8" height="8" fill="white"/>
<rect x="24" width="8" height="8" fill="white"/>
<rect x="6" y="18" width="8" height="8" fill="white"/>
<rect x="2" y="2" width="8" height="8" fill="white"/>
<rect x="20" y="20" width="8" height="8" fill="white"/>
<rect x="4" y="4" width="8" height="8" fill="white"/>
<rect x="22" y="22" width="8" height="8" fill="white"/>
<rect x="6" y="6" width="8" height="8" fill="white"/>
<rect x="14" y="8" width="4" height="4" fill="white"/>
<rect x="8" y="14" width="4" height="4" fill="white"/>
<rect x="14" y="20" width="4" height="4" fill="white"/>
<rect x="20" y="14" width="4" height="4" fill="white"/>
<rect x="24" y="24" width="8" height="8" fill="white"/>
<rect x="26" y="2" width="4" height="4" fill="#020122"/>
<rect x="24" y="4" width="4" height="4" fill="#020122"/>
<rect x="22" y="6" width="4" height="4" fill="#020122"/>
<rect x="20" y="8" width="4" height="4" fill="#020122"/>
<rect x="18" y="10" width="4" height="4" fill="#020122"/>
<rect x="14" y="17" width="4" height="3" fill="#020122"/>
<rect x="14" y="12" width="4" height="3" fill="#020122"/>
<rect x="17" y="14" width="3" height="4" fill="#020122"/>
<rect x="12" y="14" width="3" height="4" fill="#020122"/>
<rect x="10" y="18" width="4" height="4" fill="#020122"/>
<rect x="6" y="22" width="4" height="4" fill="#020122"/>
<rect x="8" y="20" width="4" height="4" fill="#020122"/>
<rect x="2" y="26" width="4" height="4" fill="#020122"/>
<rect x="4" y="24" width="4" height="4" fill="#020122"/>
<rect x="26" y="26" width="4" height="4" fill="#020122"/>
<rect x="24" y="24" width="4" height="4" fill="#020122"/>
<rect x="22" y="22" width="4" height="4" fill="#020122"/>
<rect x="20" y="20" width="4" height="4" fill="#020122"/>
<rect x="18" y="18" width="4" height="4" fill="#020122"/>
<rect x="10" y="10" width="4" height="4" fill="#020122"/>
<rect x="6" y="6" width="4" height="4" fill="#020122"/>
<rect x="8" y="8" width="4" height="4" fill="#020122"/>
<rect x="2" y="2" width="4" height="4" fill="#020122"/>
<rect x="4" y="4" width="4" height="4" fill="#020122"/>
</svg>
