<svg width="16" height="64" viewBox="0 0 16 64" fill="none" xmlns="http://www.w3.org/2000/svg">
<rect x="16" y="56" width="4" height="4" transform="rotate(-180 16 56)" fill="#BF3100"/>
<rect x="8" y="56" width="4" height="4" transform="rotate(-180 8 56)" fill="#BF3100"/>
<rect x="12" y="64" width="4" height="4" transform="rotate(-180 12 64)" fill="#BF3100"/>
<rect x="4" y="48" width="4" height="4" transform="rotate(-180 4 48)" fill="#BF3100"/>
<rect x="8" y="44" width="4" height="4" transform="rotate(-180 8 44)" fill="#BF3100"/>
<rect x="12" y="40" width="4" height="4" transform="rotate(-180 12 40)" fill="#BF3100"/>
<rect x="4" y="40" width="4" height="4" transform="rotate(-180 4 40)" fill="#BF3100"/>
<rect x="8" y="36" width="4" height="4" transform="rotate(-180 8 36)" fill="#BF3100"/>
<rect x="12" y="28" width="4" height="4" transform="rotate(-180 12 28)" fill="#BF3100"/>
<rect x="16" y="20" width="4" height="4" transform="rotate(-180 16 20)" fill="#BF3100"/>
<rect x="4" y="28" width="4" height="4" transform="rotate(-180 4 28)" fill="#BF3100"/>
<rect x="4" y="28" width="4" height="4" transform="rotate(-180 4 28)" fill="#BF3100"/>
<rect x="8" y="20" width="4" height="4" transform="rotate(-180 8 20)" fill="#BF3100"/>
<rect x="16" y="36" width="4" height="4" transform="rotate(-180 16 36)" fill="#BF3100"/>
<rect x="16" y="32" width="16" height="4" transform="rotate(-180 16 32)" fill="#BF3100"/>
<rect x="16" y="24" width="16" height="4" transform="rotate(-180 16 24)" fill="#BF3100"/>
<rect x="16" y="16" width="16" height="16" transform="rotate(-180 16 16)" fill="#BF3100"/>
<rect x="12" y="48" width="4" height="4" transform="rotate(-180 12 48)" fill="#BF3100"/>
<rect x="16" y="44" width="4" height="4" transform="rotate(-180 16 44)" fill="#BF3100"/>
</svg>
